<svg width="26" height="25" viewBox="0 0 26 25" fill="none" xmlns="http://www.w3.org/2000/svg">
<path d="M3.27778 25C2.51389 25 1.86019 24.7282 1.31667 24.1847C0.773148 23.6412 0.500926 22.987 0.5 22.2222V2.77778C0.5 2.01389 0.772222 1.36019 1.31667 0.816667C1.86111 0.273148 2.51481 0.000925926 3.27778 0H22.7222C23.4861 0 24.1403 0.272222 24.6847 0.816667C25.2292 1.36111 25.5009 2.01481 25.5 2.77778V22.2222C25.5 22.9861 25.2282 23.6403 24.6847 24.1847C24.1412 24.7292 23.487 25.0009 22.7222 25H3.27778ZM7.44444 19.4444H14.3889C14.7824 19.4444 15.1125 19.3111 15.3792 19.0444C15.6458 18.7778 15.7787 18.4481 15.7778 18.0556C15.7769 17.663 15.6435 17.3333 15.3778 17.0667C15.112 16.8 14.7824 16.6667 14.3889 16.6667H7.44444C7.05093 16.6667 6.7213 16.8 6.45556 17.0667C6.18981 17.3333 6.05648 17.663 6.05556 18.0556C6.05463 18.4481 6.18796 18.7782 6.45556 19.0458C6.72315 19.3134 7.05278 19.4463 7.44444 19.4444ZM7.44444 13.8889H18.5556C18.9491 13.8889 19.2792 13.7556 19.5458 13.4889C19.8125 13.2222 19.9454 12.8926 19.9444 12.5C19.9435 12.1074 19.8102 11.7778 19.5444 11.5111C19.2787 11.2444 18.9491 11.1111 18.5556 11.1111H7.44444C7.05093 11.1111 6.7213 11.2444 6.45556 11.5111C6.18981 11.7778 6.05648 12.1074 6.05556 12.5C6.05463 12.8926 6.18796 13.2227 6.45556 13.4903C6.72315 13.7579 7.05278 13.8907 7.44444 13.8889ZM7.44444 8.33333H18.5556C18.9491 8.33333 19.2792 8.2 19.5458 7.93333C19.8125 7.66667 19.9454 7.33704 19.9444 6.94444C19.9435 6.55185 19.8102 6.22222 19.5444 5.95556C19.2787 5.68889 18.9491 5.55556 18.5556 5.55556H7.44444C7.05093 5.55556 6.7213 5.68889 6.45556 5.95556C6.18981 6.22222 6.05648 6.55185 6.05556 6.94444C6.05463 7.33704 6.18796 7.66713 6.45556 7.93472C6.72315 8.20232 7.05278 8.33518 7.44444 8.33333Z" fill="#5F5F5F"/>
</svg>
