<svg width="379" height="176" viewBox="0 0 379 176" fill="none" xmlns="http://www.w3.org/2000/svg">
<path d="M582.717 121.557L552.666 129.683C523.004 137.585 462.9 153.836 415.035 190.484C367.171 227.132 330.766 284.624 280.268 316.69C229.77 348.755 164.4 355.842 132.105 359.162L99.4202 362.705" stroke="white"/>
<path d="M533.507 74.5253L503.456 82.6511C473.793 90.553 413.69 106.804 365.825 143.452C317.961 180.1 281.556 237.592 231.058 269.658C180.56 301.723 115.19 308.81 82.8949 312.13L50.2101 315.673" stroke="white"/>
<path d="M484.297 27.4936L454.246 35.6193C424.583 43.5212 364.48 59.7727 316.615 96.4205C268.751 133.068 232.345 190.56 181.848 222.626C131.35 254.691 65.9801 261.778 33.6848 265.098L0.999996 268.641" stroke="white"/>
<path d="M558.112 98.0415L528.061 106.167C498.399 114.069 438.295 130.321 390.43 166.968C342.566 203.616 306.161 261.108 255.663 293.174C205.165 325.239 139.795 332.326 107.5 335.646L74.8151 339.189" stroke="white"/>
<path d="M607.322 145.073L577.271 153.199C547.609 161.101 487.505 177.352 439.64 214C391.776 250.648 355.371 308.14 304.873 340.205C254.375 372.271 189.005 379.358 156.71 382.678L124.025 386.221" stroke="white"/>
<path d="M508.902 51.0095L478.851 59.1352C449.188 67.0371 389.085 83.2886 341.22 119.936C293.356 156.584 256.95 214.076 206.453 246.142C155.955 278.207 90.5851 285.294 58.2899 288.614L25.605 292.157" stroke="white"/>
</svg>
