<svg width="368" height="191" viewBox="0 0 368 191" fill="none" xmlns="http://www.w3.org/2000/svg">
<path d="M259.902 -187.991L229.851 -179.865C200.188 -171.963 140.085 -155.711 92.2203 -119.064C44.3556 -82.4158 7.95049 -24.9238 -42.5473 7.14173C-93.0452 39.2073 -158.415 46.2942 -190.71 49.6138L-223.395 53.1573" stroke="white"/>
<path d="M333.717 -117.443L303.666 -109.317C274.004 -101.415 213.9 -85.1636 166.035 -48.5158C118.171 -11.8679 81.7656 45.624 31.2678 77.6896C-19.2301 109.755 -84.5997 116.842 -116.895 120.162L-149.58 123.705" stroke="white"/>
<path d="M284.507 -164.475L254.456 -156.349C224.793 -148.447 164.69 -132.196 116.825 -95.5477C68.9607 -58.8999 32.5555 -1.40797 -17.9423 30.6576C-68.4401 62.7232 -133.81 69.8101 -166.105 73.1297L-198.79 76.6731" stroke="white"/>
<path d="M358.322 -93.9268L328.271 -85.8011C298.609 -77.8992 238.505 -61.6477 190.64 -24.9999C142.776 11.648 106.371 69.1399 55.8728 101.205C5.37499 133.271 -59.9947 140.358 -92.29 143.678L-124.975 147.221" stroke="white"/>
<path d="M235.297 -211.506L205.246 -203.381C175.583 -195.479 115.48 -179.227 67.6153 -142.579C19.7506 -105.932 -16.6546 -48.4397 -67.1524 -16.3741C-117.65 15.6914 -183.02 22.7783 -215.315 26.0979L-248 29.6414" stroke="white"/>
<path d="M309.112 -140.959L279.061 -132.833C249.399 -124.931 189.295 -108.679 141.43 -72.0316C93.5657 -35.3838 57.1606 22.1081 6.66274 54.1737C-43.8351 86.2393 -109.205 93.3262 -141.5 96.6458L-174.185 100.189" stroke="white"/>
</svg>
