<svg width="27" height="27" viewBox="0 0 27 27" fill="none" xmlns="http://www.w3.org/2000/svg">
<path d="M5.07292 0.875C3.95956 0.875 2.8918 1.31728 2.10454 2.10454C1.31728 2.8918 0.875 3.95956 0.875 5.07292V19.9271C0.875 21.0404 1.31728 22.1082 2.10454 22.8955C2.8918 23.6827 3.95956 24.125 5.07292 24.125H11.4215L11.8813 22.287C12.0905 21.45 12.5233 20.6853 13.1342 20.0756L14.896 18.3125H11.5313C11.2743 18.3125 11.0279 18.2104 10.8462 18.0288C10.6646 17.8471 10.5625 17.6007 10.5625 17.3438C10.5625 17.0868 10.6646 16.8404 10.8462 16.6587C11.0279 16.4771 11.2743 16.375 11.5313 16.375H16.8335L20.7576 12.4509C21.1951 12.0127 21.7234 11.6758 22.3052 11.4638C22.887 11.2518 23.5081 11.1699 24.125 11.2238V5.07292C24.125 3.95956 23.6827 2.8918 22.8955 2.10454C22.1082 1.31728 21.0404 0.875 19.9271 0.875H5.07292ZM8.30208 7.65625C8.30208 7.99882 8.166 8.32736 7.92376 8.5696C7.68153 8.81183 7.35299 8.94792 7.01042 8.94792C6.66785 8.94792 6.33931 8.81183 6.09707 8.5696C5.85484 8.32736 5.71875 7.99882 5.71875 7.65625C5.71875 7.31368 5.85484 6.98514 6.09707 6.7429C6.33931 6.50067 6.66785 6.36458 7.01042 6.36458C7.35299 6.36458 7.68153 6.50067 7.92376 6.7429C8.166 6.98514 8.30208 7.31368 8.30208 7.65625ZM10.5625 7.65625C10.5625 7.39932 10.6646 7.15292 10.8462 6.97124C11.0279 6.78957 11.2743 6.6875 11.5313 6.6875H18.6354C18.8923 6.6875 19.1388 6.78957 19.3204 6.97124C19.5021 7.15292 19.6042 7.39932 19.6042 7.65625C19.6042 7.91318 19.5021 8.15958 19.3204 8.34126C19.1388 8.52294 18.8923 8.625 18.6354 8.625H11.5313C11.2743 8.625 11.0279 8.52294 10.8462 8.34126C10.6646 8.15958 10.5625 7.91318 10.5625 7.65625ZM10.5625 12.5C10.5625 12.2431 10.6646 11.9967 10.8462 11.815C11.0279 11.6333 11.2743 11.5313 11.5313 11.5313H18.6354C18.8923 11.5313 19.1388 11.6333 19.3204 11.815C19.5021 11.9967 19.6042 12.2431 19.6042 12.5C19.6042 12.7569 19.5021 13.0033 19.3204 13.185C19.1388 13.3667 18.8923 13.4688 18.6354 13.4688H11.5313C11.2743 13.4688 11.0279 13.3667 10.8462 13.185C10.6646 13.0033 10.5625 12.7569 10.5625 12.5ZM7.01042 11.2083C7.35299 11.2083 7.68153 11.3444 7.92376 11.5867C8.166 11.8289 8.30208 12.1574 8.30208 12.5C8.30208 12.8426 8.166 13.1711 7.92376 13.4133C7.68153 13.6556 7.35299 13.7917 7.01042 13.7917C6.66785 13.7917 6.33931 13.6556 6.09707 13.4133C5.85484 13.1711 5.71875 12.8426 5.71875 12.5C5.71875 12.1574 5.85484 11.8289 6.09707 11.5867C6.33931 11.3444 6.66785 11.2083 7.01042 11.2083ZM8.30208 17.3438C8.30208 17.6863 8.166 18.0149 7.92376 18.2571C7.68153 18.4993 7.35299 18.6354 7.01042 18.6354C6.66785 18.6354 6.33931 18.4993 6.09707 18.2571C5.85484 18.0149 5.71875 17.6863 5.71875 17.3438C5.71875 17.0012 5.85484 16.6726 6.09707 16.4304C6.33931 16.1882 6.66785 16.0521 7.01042 16.0521C7.35299 16.0521 7.68153 16.1882 7.92376 16.4304C8.166 16.6726 8.30208 17.0012 8.30208 17.3438ZM21.6708 13.3654L14.0461 20.9888C13.6026 21.4338 13.2876 21.9903 13.1342 22.5995L12.5426 24.9646C12.4838 25.1999 12.4869 25.4464 12.5517 25.6802C12.6165 25.9139 12.7407 26.1269 12.9123 26.2983C13.0839 26.4698 13.2969 26.5939 13.5307 26.6585C13.7645 26.7231 14.0111 26.726 14.2463 26.667L16.6101 26.0767C17.2199 25.9232 17.7769 25.6077 18.2221 25.1635L25.8455 17.5401C26.3778 16.9822 26.6707 16.2382 26.6617 15.4671C26.6526 14.6961 26.3423 13.9591 25.797 13.4139C25.2518 12.8686 24.5149 12.5583 23.7438 12.5493C22.9728 12.5402 22.2287 12.8331 21.6708 13.3654Z" fill="black"/>
</svg>
