<svg width="26" height="25" viewBox="0 0 26 25" fill="none" xmlns="http://www.w3.org/2000/svg">
<path fill-rule="evenodd" clip-rule="evenodd" d="M11.8953 0.457323C12.1883 0.164392 12.5857 -0.000167847 13 -0.000167847C13.4143 -0.000167847 13.8117 0.164392 14.1047 0.457323L25.0425 11.3951C25.261 11.6136 25.4097 11.892 25.47 12.1951C25.5303 12.4981 25.4993 12.8123 25.3811 13.0977C25.2628 13.3832 25.0626 13.6272 24.8057 13.7989C24.5488 13.9706 24.2468 14.0623 23.9378 14.0624H22.3752V23.4376C22.3752 23.852 22.2106 24.2495 21.9176 24.5425C21.6246 24.8355 21.2271 25.0002 20.8127 25.0002H17.6876C17.2732 25.0002 16.8758 24.8355 16.5827 24.5425C16.2897 24.2495 16.1251 23.852 16.1251 23.4376V18.75C16.1251 18.3356 15.9605 17.9381 15.6674 17.6451C15.3744 17.3521 14.977 17.1875 14.5625 17.1875H11.4375C11.023 17.1875 10.6256 17.3521 10.3326 17.6451C10.0395 17.9381 9.87492 18.3356 9.87492 18.75V23.4376C9.87492 23.852 9.71029 24.2495 9.41726 24.5425C9.12422 24.8355 8.72679 25.0002 8.31238 25.0002H5.18729C4.77288 25.0002 4.37544 24.8355 4.08241 24.5425C3.78937 24.2495 3.62475 23.852 3.62475 23.4376V14.0624H2.06221C1.75322 14.0623 1.45118 13.9706 1.19428 13.7989C0.937384 13.6272 0.737161 13.3832 0.618923 13.0977C0.500686 12.8123 0.469743 12.4981 0.530006 12.1951C0.59027 11.892 0.739034 11.6136 0.957492 11.3951L11.8953 0.457323Z" fill="#5F5F5F"/>
</svg>
