<svg width="25" height="25" viewBox="0 0 25 25" fill="none" xmlns="http://www.w3.org/2000/svg">
<path d="M15.4837 3.09507C13.8227 2.5108 12.0415 2.3536 10.3039 2.63793C8.56627 2.92226 6.92805 3.63898 5.53993 4.72217C4.15182 5.80535 3.05838 7.22022 2.3602 8.83661C1.66203 10.453 1.38154 12.219 1.54454 13.9722C1.70754 15.7253 2.3088 17.4094 3.29299 18.8693C4.27719 20.3293 5.61272 21.5183 7.17674 22.327C8.74075 23.1358 10.483 23.5382 12.2433 23.4973C14.0035 23.4564 15.7252 22.9735 17.25 22.0931C20.1538 20.4166 22.1278 17.4521 22.5 14.1667M9.66668 10.6667H9.67835M14.3333 8.3334H14.345" stroke="black" stroke-width="2" stroke-linecap="round" stroke-linejoin="round"/>
<path d="M12 16.5C13.1667 14.9445 14.3333 14.1667 15.5 14.1667M21.3333 9.50001V9.51168M21.3333 6.00001C21.8563 5.99834 22.3637 5.82126 22.7741 5.49712C23.1846 5.17298 23.4745 4.72051 23.5973 4.21213C23.7202 3.70375 23.6689 3.16885 23.4518 2.69304C23.2347 2.21722 22.8642 1.82801 22.3997 1.58768C21.9355 1.34992 21.4046 1.2762 20.8933 1.37852C20.3819 1.48083 19.9203 1.75315 19.5833 2.15118" stroke="black" stroke-width="2" stroke-linecap="round" stroke-linejoin="round"/>
</svg>
