<?xml version="1.0" encoding="UTF-8"?>
<!DOCTYPE svg PUBLIC "-//W3C//DTD SVG 1.1//EN" "http://www.w3.org/Graphics/SVG/1.1/DTD/svg11.dtd">
<!-- Creator: CorelDRAW -->
<svg xmlns="http://www.w3.org/2000/svg" xml:space="preserve" width="125mm" height="125mm" version="1.1" style="shape-rendering:geometricPrecision; text-rendering:geometricPrecision; image-rendering:optimizeQuality; fill-rule:evenodd; clip-rule:evenodd"
viewBox="0 0 12500 12500"
 xmlns:xlink="http://www.w3.org/1999/xlink"
 xmlns:xodm="http://www.corel.com/coreldraw/odm/2003">
 <defs>
  <style type="text/css">
   <![CDATA[
    .fil1 {fill:#20BEEE}
    .fil0 {fill:#68B39F}
    .fil2 {fill:#BB212A}
    .fil3 {fill:#332C2B;fill-rule:nonzero}
   ]]>
  </style>
 </defs>
 <g id="Layer_x0020_1">
  <metadata id="CorelCorpID_0Corel-Layer"/>
  <path class="fil0" d="M5852.09 1769.71c-420.63,91.61 -526.63,107.62 -918.15,330.06 -254.03,144.32 -508.9,381.46 -666.96,589.59 -168.76,222.2 -346.98,494.4 -431.14,808.51 -193.53,722.33 -145.75,1372.36 242.33,2031.46 807.67,1371.72 2871.69,1738.33 4096.33,274.6 856.5,-1023.71 710.97,-2651.51 -390.96,-3517.25 -496.43,-390.02 -1272.56,-660.46 -1931.45,-516.97zm-1044.31 2789.24c15.05,176.15 -34.75,89.28 32.15,240.99 31.19,70.72 3.58,40.57 19.73,114.54 11.66,53.4 32.18,59.48 44.46,98.48 43.8,139.22 -105.52,283.61 111.46,403.73 132.86,73.56 341.64,17.54 488.56,63.36 174.2,54.32 143.93,215.46 163.7,404.73 452.88,17.61 1122.58,4.45 1605.44,1.48 -4.46,-112.26 -233.31,-425.15 -58.01,-989.82 41.36,-133.21 127.06,-278.86 191.65,-393.65 260.01,-461.99 330.76,-901.06 70.7,-1374.95 -514.11,-936.8 -2008.71,-779.88 -2383.41,-165.41 -59.36,97.34 -213.91,535.07 -220.13,663.81 -15,310.51 220.18,78.13 -179.28,591.63 -156.6,201.31 -79.05,273.15 112.98,341.08z"/>
  <path class="fil1" d="M5980.52 2726.36c-275.29,46.81 -495.7,115.23 -606.74,361.49 -51.15,113.44 -44.68,294.96 30.27,389.5 197.67,249.36 563.63,156.69 913.6,535.17 108.18,116.98 380.25,422.57 485.15,478.71 451.86,241.81 774.37,-684.22 502.92,-1191.66 -115.19,-215.35 -257.57,-367.94 -485.77,-477.05 -193.55,-92.54 -595.51,-137.64 -839.43,-96.16z"/>
  <path class="fil2" d="M6255.76 3160.49c-69.86,33.9 -150.71,69.6 -140.34,224.37 11.63,173.52 309.46,383.97 368.54,397.25 111.07,24.98 631.43,-336.72 359.41,-588.89 -125.25,-116.11 -269.82,-17.24 -291.71,-9.46 -103.55,36.82 -134.01,-101.82 -295.9,-23.27z"/>
  <path class="fil3" d="M1231.83 7733.62l255.94 0 210.79 494.94 215.72 -494.94 229.84 0 0 47.62 -9.71 0.53c-35.27,2.82 -56.26,8.82 -62.79,17.99 -6.7,9.35 -10.05,37.04 -10.05,83.08l0 466.73c0,46.03 3.52,73.9 10.4,83.25 6.88,9.53 27.52,15.35 62.27,17.82l9.88 0.53 0 47.62 -299.51 0 0 -47.62 9.7 -0.53c28.75,-1.77 46.04,-7.41 51.68,-16.94 5.65,-9.7 8.47,-37.74 8.47,-84.13l0 -454.73 -237.42 518.23 -52.39 0 -233.01 -550.34 0 486.84c0,45.68 3,73.55 8.82,83.6 5.82,9.88 23.11,15.7 51.68,17.47l9.35 0.53 0 47.62 -229.66 0 0 -47.62 9.88 -0.53c34.75,-2.47 55.57,-8.29 62.44,-17.82 6.88,-9.35 10.23,-37.22 10.23,-83.25l0 -466.73c0,-46.04 -3.35,-73.73 -10.05,-83.08 -6.7,-9.17 -27.69,-15.17 -62.62,-17.99l-9.88 -0.53 0 -47.62zm1478.31 742.95c-67.38,23.28 -133.17,34.92 -197.2,34.92 -96.84,0 -173.21,-27.16 -229.48,-81.49 -56.27,-54.51 -84.49,-128.24 -84.49,-221.55 0,-86.07 25.4,-155.75 76.2,-209.37 50.8,-53.44 116.94,-80.25 198.43,-80.25 157.7,0 236.54,96.83 236.54,290.33l0 11.29 -354.54 0c0,71.61 16.76,125.23 50.1,161.04 33.51,35.81 83.6,53.8 150.45,53.8 45.51,0 96.84,-12.35 153.99,-37.04l0 78.32zm-351.36 -303.75l201.08 0 0 -18.16c0,-68.8 -6.88,-117.3 -20.82,-145.7 -13.75,-28.4 -37.74,-42.51 -71.61,-42.51 -36.16,0 -63.15,17.11 -81.31,51.51 -18.17,34.39 -27.34,86.07 -27.34,154.86zm654.04 -134.05c23.46,-40.04 51.51,-70.03 83.79,-89.96 32.45,-19.93 69.49,-29.98 110.95,-29.98 50.97,0 91.01,15.69 119.94,46.91 28.75,31.58 43.04,75.5 43.04,131.59l0 251.18c0,46.56 3.53,74.61 10.58,84.13 7.06,9.53 28.05,15.53 62.8,18l9.87 0.53 0 47.62 -319.26 0 0 -47.62 9.35 -0.53c35.1,-2.47 56.09,-8.47 62.97,-18 6.88,-9.52 10.23,-37.57 10.23,-84.13l0 -233.54c0,-40.22 -4.76,-67.38 -14.29,-81.67 -9.35,-14.29 -27.51,-21.34 -54.5,-21.34 -23.11,0 -45.86,7.05 -68.44,20.99 -22.58,13.93 -44.98,34.92 -67.03,63.15l0 252.41c0,46.56 3.53,74.61 10.59,84.13 6.87,9.53 27.69,15.53 62.26,18l9.7 0.53 0 47.62 -318.56 0 0 -47.62 9.88 -0.53c34.75,-2.47 55.57,-8.47 62.44,-18 6.88,-9.52 10.23,-37.57 10.23,-84.13l0 -266.7c0,-46.57 -3.35,-74.61 -10.23,-84.14 -6.87,-9.52 -27.69,-15.52 -62.44,-17.99l-9.88 -0.53 0 -47.62 236.01 0 0 107.24zm825.32 455.08c-32.1,11.82 -63.5,17.64 -94.19,17.64 -63.85,0 -111.83,-15.7 -143.76,-47.27 -31.92,-31.58 -47.8,-78.85 -47.8,-141.82l0 -340.08 -69.85 0 0 -50.79 69.85 0 0 -95.25 153.46 -26.82 0 122.07 125.94 0 0 50.79 -125.94 0 0 343.43c0,50.45 4.94,83.96 14.99,100.02 10.06,16.22 30.7,24.34 62.09,24.34 17.11,0 35.63,-3.88 55.21,-11.82l0 55.56zm393.35 -60.68c-27.16,26.11 -54.86,45.69 -83.43,58.74 -28.4,13.05 -57.33,19.58 -86.96,19.58 -50.27,0 -91.9,-15.52 -125.06,-46.74 -32.98,-31.05 -49.57,-70.38 -49.57,-117.83 0,-55.39 21,-99.66 62.98,-132.64 25.22,-19.94 55.03,-33.69 89.42,-41.46 34.4,-7.76 82.91,-11.64 145.7,-11.64l25.75 0 0 -68.79c0,-48.68 -6.17,-81.84 -18.52,-99.48 -12.17,-17.64 -34.92,-26.46 -68.26,-26.46 -40.22,0 -70.55,10.76 -90.84,32.46 -6.88,6.87 -11.29,29.81 -13.4,68.96l-0.53 9.7 -83.61 0 0 -114.29c65.61,-29.64 134.23,-44.45 205.84,-44.45 71.79,0 126.83,14.81 165.28,44.45 38.28,29.63 57.5,72.14 57.5,127.52l0 248.89c0,43.92 3.18,73.73 9.7,89.43 6.18,16.05 17.99,24.16 35.46,24.16 5.11,0 11.11,-0.88 17.99,-2.64l6.7 47.97c-26.46,8.65 -52.56,12.88 -77.96,12.88 -28.05,0 -52.21,-6.53 -72.85,-19.58 -20.81,-13.05 -37.75,-32.63 -51.33,-58.74zm-21.17 -37.74l0 -187.68 -20.1 0c-50.98,0 -89.26,10.23 -115.01,30.69 -25.58,20.46 -38.45,51.15 -38.45,92.08 0,30.16 8.11,54.32 24.52,72.49 16.4,17.99 38.27,26.99 65.97,26.99 15.34,0 29.98,-3 43.74,-8.82 13.76,-5.82 26.99,-14.46 39.33,-25.75zm494.42 -712.61l0 665.69c0,46.56 3.53,74.61 10.59,84.13 6.87,9.53 27.69,15.53 62.26,18l9.7 0.53 0 47.62 -318.56 0 0 -47.62 9.88 -0.53c34.75,-2.47 55.57,-8.47 62.44,-18 6.88,-9.52 10.23,-37.57 10.23,-84.13l0 -515.41c0,-46.39 -3.35,-74.26 -10.23,-83.96 -6.87,-9.7 -27.69,-15.52 -62.44,-17.64l-9.88 -1.06 0 -47.62 236.01 0zm356.83 440.26l0 226.49c0,46.03 3.53,73.9 10.41,83.25 6.88,9.53 27.69,15.35 62.79,17.82l9.35 0.53 0 47.62 -324.91 0 0 -47.62 9.88 -0.53c34.75,-2.47 55.57,-8.29 62.44,-17.82 6.88,-9.35 10.23,-37.22 10.23,-83.25l0 -466.73c0,-46.04 -3.35,-73.73 -10.05,-83.08 -6.7,-9.17 -27.69,-15.17 -62.62,-17.99l-9.88 -0.53 0 -47.62 324.91 0 0 47.62 -9.35 0.53c-35.27,2.82 -56.44,8.82 -63.14,17.99 -6.71,9.35 -10.06,37.04 -10.06,83.08l0 186.27 315.38 0 0 -186.27c0,-46.04 -3.35,-73.73 -10.05,-83.08 -6.7,-9.17 -27.69,-15.17 -62.62,-17.99l-9.87 -0.53 0 -47.62 324.9 0 0 47.62 -9.35 0.53c-35.27,2.82 -56.44,8.82 -63.14,17.99 -6.71,9.35 -10.06,37.04 -10.06,83.08l0 466.73c0,46.03 3.53,73.9 10.41,83.25 6.88,9.53 27.69,15.35 62.79,17.82l9.35 0.53 0 47.62 -324.9 0 0 -47.62 9.87 -0.53c34.75,-2.47 55.57,-8.29 62.44,-17.82 6.88,-9.35 10.23,-37.22 10.23,-83.25l0 -226.49 -315.38 0zm1124.3 353.49c-67.38,23.28 -133.17,34.92 -197.2,34.92 -96.84,0 -173.21,-27.16 -229.48,-81.49 -56.27,-54.51 -84.49,-128.24 -84.49,-221.55 0,-86.07 25.4,-155.75 76.2,-209.37 50.8,-53.44 116.94,-80.25 198.43,-80.25 157.7,0 236.54,96.83 236.54,290.33l0 11.29 -354.54 0c0,71.61 16.76,125.23 50.1,161.04 33.51,35.81 83.6,53.8 150.45,53.8 45.51,0 96.84,-12.35 153.99,-37.04l0 78.32zm-351.36 -303.75l201.08 0 0 -18.16c0,-68.8 -6.88,-117.3 -20.82,-145.7 -13.75,-28.4 -37.74,-42.51 -71.61,-42.51 -36.16,0 -63.15,17.11 -81.31,51.51 -18.17,34.39 -27.34,86.07 -27.34,154.86zm769.4 260.35c-27.16,26.11 -54.86,45.69 -83.43,58.74 -28.4,13.05 -57.33,19.58 -86.96,19.58 -50.27,0 -91.9,-15.52 -125.06,-46.74 -32.98,-31.05 -49.57,-70.38 -49.57,-117.83 0,-55.39 21,-99.66 62.98,-132.64 25.22,-19.94 55.03,-33.69 89.42,-41.46 34.4,-7.76 82.91,-11.64 145.7,-11.64l25.75 0 0 -68.79c0,-48.68 -6.17,-81.84 -18.52,-99.48 -12.17,-17.64 -34.92,-26.46 -68.26,-26.46 -40.22,0 -70.55,10.76 -90.84,32.46 -6.88,6.87 -11.29,29.81 -13.4,68.96l-0.53 9.7 -83.61 0 0 -114.29c65.61,-29.64 134.23,-44.45 205.84,-44.45 71.79,0 126.83,14.81 165.28,44.45 38.28,29.63 57.5,72.14 57.5,127.52l0 248.89c0,43.92 3.18,73.73 9.7,89.43 6.18,16.05 17.99,24.16 35.46,24.16 5.11,0 11.11,-0.88 17.99,-2.64l6.7 47.97c-26.46,8.65 -52.56,12.88 -77.96,12.88 -28.05,0 -52.21,-6.53 -72.85,-19.58 -20.81,-13.05 -37.75,-32.63 -51.33,-58.74zm-21.17 -37.74l0 -187.68 -20.1 0c-50.98,0 -89.26,10.23 -115.01,30.69 -25.58,20.46 -38.45,51.15 -38.45,92.08 0,30.16 8.11,54.32 24.52,72.49 16.4,17.99 38.27,26.99 65.97,26.99 15.34,0 29.98,-3 43.74,-8.82 13.76,-5.82 26.99,-14.46 39.33,-25.75zm494.42 -712.61l0 665.69c0,46.56 3.53,74.61 10.59,84.13 6.87,9.53 27.69,15.53 62.26,18l9.7 0.53 0 47.62 -318.56 0 0 -47.62 9.88 -0.53c34.75,-2.47 55.57,-8.47 62.44,-18 6.88,-9.52 10.23,-37.57 10.23,-84.13l0 -515.41c0,-46.39 -3.35,-74.26 -10.23,-83.96 -6.87,-9.7 -27.69,-15.52 -62.44,-17.64l-9.88 -1.06 0 -47.62 236.01 0zm477.48 811.03c-32.1,11.82 -63.5,17.64 -94.19,17.64 -63.85,0 -111.83,-15.7 -143.76,-47.27 -31.92,-31.58 -47.8,-78.85 -47.8,-141.82l0 -340.08 -69.85 0 0 -50.79 69.85 0 0 -95.25 153.46 -26.82 0 122.07 125.94 0 0 50.79 -125.94 0 0 343.43c0,50.45 4.94,83.96 14.99,100.02 10.06,16.22 30.7,24.34 62.09,24.34 17.11,0 35.63,-3.88 55.21,-11.82l0 55.56zm277.99 -455.08c23.46,-40.04 51.51,-70.03 83.79,-89.96 32.45,-19.93 69.49,-29.98 110.95,-29.98 50.97,0 91.01,15.69 119.94,46.91 28.75,31.58 43.04,75.5 43.04,131.59l0 251.18c0,46.56 3.53,74.61 10.58,84.13 7.06,9.53 28.05,15.53 62.8,18l9.87 0.53 0 47.62 -319.26 0 0 -47.62 9.35 -0.53c35.1,-2.47 56.09,-8.47 62.97,-18 6.88,-9.52 10.23,-37.57 10.23,-84.13l0 -233.54c0,-40.22 -4.76,-67.38 -14.29,-81.67 -9.35,-14.29 -27.51,-21.34 -54.5,-21.34 -23.11,0 -45.86,7.05 -68.44,20.99 -22.58,13.93 -44.98,34.92 -67.03,63.15l0 252.41c0,46.56 3.53,74.61 10.59,84.13 6.87,9.53 27.69,15.53 62.26,18l9.7 0.53 0 47.62 -318.56 0 0 -47.62 9.88 -0.53c34.75,-2.47 55.57,-8.47 62.44,-18 6.88,-9.52 10.23,-37.57 10.23,-84.13l0 -515.41c0,-46.39 -3.35,-74.26 -10.23,-83.96 -6.87,-9.7 -27.69,-15.52 -62.44,-17.64l-9.88 -1.06 0 -47.62 236.01 0 0 355.95zm497.24 460.02l0 -166.16 166.16 0 0 166.16 -166.16 0zm744.18 -13.76c-58.92,17.64 -115.36,26.46 -169.51,26.46 -98.95,0 -176.74,-26.99 -233.36,-80.79 -56.62,-53.79 -85.02,-127.88 -85.02,-222.25 0,-90.13 26.81,-161.04 80.61,-212.37 53.8,-51.5 127.88,-77.25 222.25,-77.25 59.62,0 120.65,8.46 182.91,25.4l0 146.04 -73.02 0 -0.53 -9.34c-2.82,-42.87 -7.94,-69.15 -15.52,-78.32 -19.41,-24.17 -49.22,-36.16 -89.61,-36.16 -48.51,0 -84.67,19.58 -108.83,58.91 -24.17,39.34 -36.34,98.25 -36.34,176.92 0,80.26 16.05,140.58 48.33,180.98 32.28,40.39 80.44,60.5 144.64,60.5 39.69,0 83.96,-9.88 133,-29.64l0 70.91zm418.57 -51.86c-27.16,26.11 -54.86,45.69 -83.43,58.74 -28.4,13.05 -57.33,19.58 -86.96,19.58 -50.27,0 -91.9,-15.52 -125.06,-46.74 -32.98,-31.05 -49.57,-70.38 -49.57,-117.83 0,-55.39 21,-99.66 62.98,-132.64 25.22,-19.94 55.03,-33.69 89.42,-41.46 34.4,-7.76 82.91,-11.64 145.7,-11.64l25.75 0 0 -68.79c0,-48.68 -6.17,-81.84 -18.52,-99.48 -12.17,-17.64 -34.92,-26.46 -68.26,-26.46 -40.22,0 -70.55,10.76 -90.84,32.46 -6.88,6.87 -11.29,29.81 -13.4,68.96l-0.53 9.7 -83.61 0 0 -114.29c65.61,-29.64 134.23,-44.45 205.84,-44.45 71.79,0 126.83,14.81 165.28,44.45 38.28,29.63 57.5,72.14 57.5,127.52l0 248.89c0,43.92 3.18,73.73 9.7,89.43 6.18,16.05 17.99,24.16 35.46,24.16 5.11,0 11.11,-0.88 17.99,-2.64l6.7 47.97c-26.46,8.65 -52.56,12.88 -77.96,12.88 -28.05,0 -52.21,-6.53 -72.85,-19.58 -20.81,-13.05 -37.75,-32.63 -51.33,-58.74zm-21.17 -37.74l0 -187.68 -20.1 0c-50.98,0 -89.26,10.23 -115.01,30.69 -25.58,20.46 -38.45,51.15 -38.45,92.08 0,30.16 8.11,54.32 24.52,72.49 16.4,17.99 38.27,26.99 65.97,26.99 15.34,0 29.98,-3 43.74,-8.82 13.76,-5.82 26.99,-14.46 39.33,-25.75zm494.42 -301.98l0 255.06c0,47.27 3.88,75.31 11.47,84.49 7.58,8.99 32.63,14.81 74.96,17.64l9.88 0.53 0 47.62 -332.32 0 0 -47.62 9.88 -0.53c34.75,-2.47 55.57,-8.47 62.44,-18 6.88,-9.52 10.23,-37.57 10.23,-84.13l0 -266.7c0,-46.57 -3.35,-74.61 -10.23,-84.14 -6.87,-9.52 -27.69,-15.52 -62.44,-17.99l-9.88 -0.53 0 -47.62 236.01 0 0 106.89c46.39,-79.73 106.72,-119.59 180.62,-119.59 7.94,0 18,1.41 29.99,4.23l0 179.91 -69.85 0 -0.53 -9.17c-2.82,-37.74 -5.29,-58.91 -7.41,-63.85 -2.29,-4.94 -10.93,-7.41 -25.75,-7.41 -44.1,0 -79.73,23.64 -107.07,70.91zm781.4 383.12c-67.38,23.28 -133.17,34.92 -197.2,34.92 -96.84,0 -173.21,-27.16 -229.48,-81.49 -56.27,-54.51 -84.49,-128.24 -84.49,-221.55 0,-86.07 25.4,-155.75 76.2,-209.37 50.8,-53.44 116.94,-80.25 198.43,-80.25 157.7,0 236.54,96.83 236.54,290.33l0 11.29 -354.54 0c0,71.61 16.76,125.23 50.1,161.04 33.51,35.81 83.6,53.8 150.45,53.8 45.51,0 96.84,-12.35 153.99,-37.04l0 78.32zm-351.36 -303.75l201.08 0 0 -18.16c0,-68.8 -6.88,-117.3 -20.82,-145.7 -13.75,-28.4 -37.74,-42.51 -71.61,-42.51 -36.16,0 -63.15,17.11 -81.31,51.51 -18.17,34.39 -27.34,86.07 -27.34,154.86z"/>
 </g>
</svg>
