<svg width="390" height="700" viewBox="0 0 390 700" fill="none" xmlns="http://www.w3.org/2000/svg">
<path fill-rule="evenodd" clip-rule="evenodd" d="M201.981 372.08C203.214 365.71 204.653 360.347 210.27 355.843C216.318 350.993 219.051 353.244 224.613 347.095C230.162 340.961 240.884 336.994 249.174 335.197C256.674 333.571 264.313 335.185 271.626 336.598C276.481 337.536 277.092 336.961 281.366 340.44C287.346 345.306 288.16 351.54 285.58 358.351C283.423 364.051 277.39 363.654 276.831 364.525C276.362 365.256 277.698 373.754 277.789 375.602C278.263 385.253 277.437 390.265 268.137 395.738C264.534 397.858 260.771 401.885 258.106 405.039C255.655 407.942 257.764 407.7 252.741 410.133C247.669 412.59 245.752 413.626 240.056 412.794C238.401 412.552 237.335 414.835 234.815 416.047C231.187 417.792 224.567 418.167 221.14 415.927C219.242 414.687 218.974 418.299 213.494 418.673C208.388 419.02 205.501 417.074 202.95 413.025C201.994 411.51 204.921 408.552 205.848 406.442C206.683 404.543 208.004 399.215 206.006 397.708C202.988 395.43 204.826 396.569 204.288 393.203C203.71 389.591 201.46 389.166 201.67 384.224C201.842 380.165 201.289 375.893 201.981 372.08Z" fill="#FEC997" stroke="#332C2B" stroke-width="0.755906" stroke-miterlimit="22.9256"/>
<path fill-rule="evenodd" clip-rule="evenodd" d="M201.861 372.889C200.582 364.367 196.885 356.39 188.305 352.242C183.365 349.853 182.578 352.283 177.165 347.022C167.306 337.439 150.518 334.684 137.012 337.644C133.867 338.334 123.245 340.842 120.954 342.455C113.333 347.815 110.983 361.73 119.923 366.932C126.253 370.616 126.285 362.19 125.859 376.355C125.612 384.579 127.153 394.154 136.02 398.13C138.423 399.208 148.652 405.862 149.503 407.711C150.682 410.268 151.476 410.435 154.458 411.755C158.933 413.733 162.004 414.559 166.77 412.97C168.113 412.521 170.203 415.227 172.882 416.088C177.857 417.685 181.679 417.098 186.152 414.675C188.522 413.391 187.572 417.729 194.94 416.892C199.872 416.332 201.054 413.872 203.613 410.328C205.893 407.172 207.285 403.433 206.998 399.581C206.796 396.887 204.617 398.494 204.468 394.804C204.257 389.568 201.537 389.955 201.747 384.514C201.892 380.777 201.861 376.653 201.861 372.889Z" fill="#FEC997" stroke="#332C2B" stroke-width="0.755906" stroke-miterlimit="22.9256"/>
<path d="M125.457 367.779C132.029 368.37 134.353 368.296 141.041 367.748C143.19 367.573 147.163 365.492 148.269 363.143C148.534 362.579 149.026 360.157 148.923 358.827C148.721 356.239 147.117 353.004 145.314 351.889C141.877 349.762 139.345 349.526 133.902 348.649C130.706 348.135 127.385 348.153 124.164 349.523" stroke="#332C2B" stroke-width="0.755906" stroke-miterlimit="22.9256"/>
<path d="M137.722 398.972C138.915 399.55 142.826 400.515 144.129 400.432C146.173 400.303 149.154 399.447 151.474 398.639C152.738 398.2 155.048 397.948 158.29 396.5C159.36 396.023 162.123 394.119 167.234 391.708C171.008 389.929 174.717 387.573 173.92 384.022C172.777 378.927 162.382 378.235 157.985 377.858C154.774 377.582 147.976 381.327 147.976 381.327C144.661 380.667 141.214 382.284 135.763 385.96" stroke="#332C2B" stroke-width="0.755906" stroke-miterlimit="22.9256"/>
<path d="M167.208 412.795C170.903 411.718 170.688 412.067 173.265 410.25C177.108 407.541 179.342 403.46 183.859 399.829C194.328 391.413 195.825 389.703 194.514 385.705C194.155 384.607 192.306 381.847 188.998 380.922C183.7 379.439 177.402 382.858 173.926 385.381" stroke="#332C2B" stroke-width="0.755906" stroke-miterlimit="22.9256"/>
<path d="M204.66 396.544C202.129 400.395 200.58 401.677 197.103 405.026C192.201 409.748 192.505 409.416 188.671 412.717L186.152 414.675" stroke="#332C2B" stroke-width="0.755906" stroke-miterlimit="22.9256"/>
<path d="M194.862 388.496C196.29 386.607 200.913 386.597 202.53 388.93" stroke="#332C2B" stroke-width="0.755906" stroke-miterlimit="22.9256"/>
<path d="M276.993 364.301C270.54 365.034 262.07 366.339 256.61 363.898C253.084 362.321 252.035 357.641 252.036 356.647C252.048 348.601 263.065 346.224 266.58 345.755C271.322 345.124 273.704 345.434 275.887 346.362" stroke="#332C2B" stroke-width="0.755906" stroke-miterlimit="22.9256"/>
<path d="M266.324 396.854C262.211 398.097 260.622 398.518 256.893 397.738C253.034 396.931 251.483 396.615 246.171 395.142C245.078 394.839 243.004 393.802 239.081 392.079C235.801 390.639 231.669 388.9 230.184 386.842C228.878 385.032 229.388 383.193 231.159 381.675C233.769 379.439 236.499 377.985 240.548 377.511C244.749 377.019 246.612 376.99 250.381 377.55C252.226 377.825 253.851 379.116 255.98 379.492C258.684 379.97 261.303 379.996 265.742 381.911" stroke="#332C2B" stroke-width="0.755906" stroke-miterlimit="22.9256"/>
<path d="M239.071 412.76C237.678 412.378 235.542 411.525 233.646 410.166C230.967 408.246 227.85 405.604 224.508 402.985C217.133 397.207 209.867 393.304 210.046 388.972C210.44 379.46 224.23 380.957 229.455 384.927" stroke="#332C2B" stroke-width="0.755906" stroke-miterlimit="22.9256"/>
<path d="M206.272 405.217C210.402 407.661 210.954 408.091 214.718 411.035C217.571 413.267 218.335 414.596 221.14 415.917" stroke="#332C2B" stroke-width="0.755906" stroke-miterlimit="22.9256"/>
<path d="M203.359 390.471C204.802 389.664 207.877 389.65 208.755 389.729C209.297 389.777 209.641 389.921 210.17 389.951" stroke="#332C2B" stroke-width="0.755906" stroke-miterlimit="22.9256"/>
<path fill-rule="evenodd" clip-rule="evenodd" d="M202.497 348.348C200.507 349.888 202.313 350.243 186.247 337.376C185.725 336.957 174.768 327.556 181.317 317.738C191.397 302.627 198.965 327.583 201.041 323.714C204.773 316.764 206.243 314.587 212.124 312.123C217.718 309.781 224.919 320.907 221.806 328.462C219.976 333.5 212.724 340.424 202.497 348.348Z" fill="#FA499A" stroke="#332C2B" stroke-width="0.755906" stroke-miterlimit="22.9256"/>
<path d="M201.744 322.36C201.689 317.936 203.933 312.18 206.589 308.647C211.229 302.475 213.968 300.956 221.015 297.798C226.563 295.312 234.367 293.498 241.321 295.416C243.52 296.022 248.421 297.545 250.2 303.941C252.554 312.404 247.951 317.47 242.642 319.528C236.244 322.008 231.7 317.967 229.898 314.678C228.337 311.824 230.209 307.023 233.044 305.426C235.958 303.783 241.846 306.395 239.191 311.147C237.246 314.625 234.292 309.893 232.808 311.207" stroke="#332C2B" stroke-width="0.755906" stroke-miterlimit="22.9256"/>
<path d="M200.145 320.864C197.399 304.876 195.397 271.441 184.638 255.506L181.015 251.563" stroke="#332C2B" stroke-width="0.755906" stroke-miterlimit="22.9256"/>
<path fill-rule="evenodd" clip-rule="evenodd" d="M199.954 322.282C197.11 318.075 189.974 289.66 180.9 277.244C173.381 266.956 151.04 254.923 147.045 266.248C142.907 277.981 166.461 286.249 157.457 277.54C147.467 267.877 164.478 265.966 166.527 278.077C168.999 292.693 129.205 295.138 130.919 264.99C132.097 244.286 162.871 233.919 178.436 248.975C188.298 258.514 181.21 255.61 185.46 244.364C192.328 226.194 209.061 223.967 221.448 227.496C233.861 231.032 237.335 240.882 238.036 245.696C239.566 256.225 234.504 262.146 217.549 277.114C203.954 289.115 203.541 303.012 201.123 319.412C200.669 322.491 200.657 323.003 199.954 322.282Z" stroke="#332C2B" stroke-width="0.755906" stroke-miterlimit="22.9256"/>
<path d="M193.555 279.001C193.706 278.31 193.827 265.219 197.362 257.644C200.61 250.681 207.454 241.319 216.664 242.585C225.592 243.811 227.915 259.467 217.528 260.936C210.934 261.868 208.919 256.153 209.546 254.331C210.698 250.985 214.079 250.318 215.605 251.604C218.379 253.94 215.547 256.182 214.534 256.057" stroke="#332C2B" stroke-width="0.755906" stroke-miterlimit="22.9256"/>
<path fill-rule="evenodd" clip-rule="evenodd" d="M169.483 288.712C167.499 289.444 167.828 296.821 169.955 299.879C172.61 303.696 181.171 308.341 182.067 306.801C183.333 304.622 183.31 297.903 180.965 294.532C178.515 291.01 172.456 287.614 169.483 288.712Z" stroke="#332C2B" stroke-width="0.755906" stroke-miterlimit="22.9256"/>
<path fill-rule="evenodd" clip-rule="evenodd" d="M169.483 288.712C167.499 289.444 167.828 296.821 169.955 299.879C172.61 303.696 181.171 308.341 182.067 306.801C183.333 304.622 183.31 297.903 180.965 294.532C178.515 291.01 172.456 287.614 169.483 288.712Z" fill="#68B39F" stroke="#332C2B" stroke-width="0.755906" stroke-miterlimit="22.9256"/>
<path fill-rule="evenodd" clip-rule="evenodd" d="M158.983 312.204C158.643 313.904 163.935 316.841 166.983 316.669C170.787 316.454 177.706 312.472 177.015 311.184C176.038 309.365 171.336 306.497 167.976 306.686C164.465 306.885 159.493 309.658 158.983 312.204Z" fill="#68B39F" stroke="#332C2B" stroke-width="0.755906" stroke-miterlimit="22.9256"/>
<path fill-rule="evenodd" clip-rule="evenodd" d="M172.205 218.566C170.339 218.456 167.991 224.545 168.629 227.775C169.426 231.806 174.711 238.602 175.983 237.672C177.78 236.357 180.143 230.908 179.439 227.348C178.704 223.628 175.001 218.731 172.205 218.566Z" fill="#68B39F" stroke="#332C2B" stroke-width="0.755906" stroke-miterlimit="22.9256"/>
<path fill-rule="evenodd" clip-rule="evenodd" d="M229.129 279.708C228.317 278.134 222.216 279.162 219.891 281.243C216.989 283.841 214.002 291.435 215.375 292.022C217.316 292.852 222.901 292.146 225.464 289.851C228.142 287.454 230.345 282.068 229.129 279.708Z" fill="#68B39F" stroke="#332C2B" stroke-width="0.755906" stroke-miterlimit="22.9256"/>
<path fill-rule="evenodd" clip-rule="evenodd" d="M235.878 286.02C237.154 287.707 244.12 285.257 246.431 282.336C249.316 278.69 251.284 269.151 249.55 268.739C247.099 268.158 240.673 270.125 238.125 273.345C235.463 276.71 233.967 283.493 235.878 286.02Z" fill="#68B39F" stroke="#332C2B" stroke-width="0.755906" stroke-miterlimit="22.9256"/>
<path d="M159.489 302.716C161.4 302.716 162.949 301.167 162.949 299.256C162.949 297.345 161.4 295.796 159.489 295.796C157.578 295.796 156.028 297.345 156.028 299.256C156.028 301.167 157.578 302.716 159.489 302.716Z" fill="#68B39F" stroke="#332C2B" stroke-width="0.755906" stroke-miterlimit="22.9256"/>
<path d="M141.354 463.71C141.354 464.068 141.187 464.251 140.862 464.251C140.33 464.251 139.522 464.243 138.456 464.226C137.391 464.21 136.591 464.201 136.05 464.201C135.759 464.201 135.609 463.968 135.609 463.493C135.609 462.694 135.634 461.487 135.684 459.855C135.734 458.232 135.759 457.008 135.759 456.2C135.759 455.543 135.75 454.577 135.734 453.278C135.717 451.987 135.709 451.013 135.709 450.364C135.709 448.507 135.442 447.2 134.91 446.434C134.252 445.527 133.053 445.069 131.296 445.069C130.489 445.069 129.356 445.527 127.908 446.443C126.384 447.4 125.618 448.258 125.618 449.007V463.643C125.618 464.043 125.46 464.251 125.152 464.251C124.636 464.251 123.853 464.243 122.812 464.226C121.763 464.21 120.989 464.201 120.465 464.201C120.123 464.201 119.948 464.018 119.948 463.643C119.948 462.353 119.973 460.43 120.015 457.857C120.056 455.285 120.073 453.353 120.073 452.046C120.073 448.582 119.715 445.385 118.999 442.463C118.949 442.313 118.924 442.205 118.924 442.147C118.924 441.98 119.032 441.863 119.241 441.797C119.357 441.789 120.281 441.63 122.03 441.347C123.778 441.064 124.694 440.923 124.777 440.923C124.869 440.923 124.935 441.056 124.969 441.314C125.052 442.321 125.235 443.345 125.526 444.369C126.376 443.704 127.491 442.871 128.865 441.88C130.572 440.839 132.229 440.323 133.819 440.323C136.874 440.323 138.964 441.206 140.08 442.979C140.912 444.286 141.329 446.384 141.329 449.298C141.329 449.806 141.312 450.572 141.287 451.613C141.262 452.653 141.254 453.436 141.254 453.961C141.254 455.043 141.27 456.675 141.304 458.831C141.337 460.996 141.354 462.628 141.354 463.71ZM171.701 442.072C171.701 443.262 171.651 445.052 171.551 447.458C171.451 449.856 171.401 451.654 171.401 452.862C171.401 454.044 171.434 455.826 171.509 458.19C171.584 460.555 171.617 462.336 171.617 463.518C171.617 463.843 171.468 464.06 171.16 464.151C171.026 464.185 169.369 464.201 166.189 464.201C165.998 464.201 165.881 463.593 165.839 462.37C165.798 461.154 165.706 460.538 165.556 460.538C165.473 460.538 165.356 460.613 165.19 460.763C162.476 463.119 159.803 464.301 157.156 464.301C153.567 464.301 151.195 463.002 150.046 460.396C149.33 458.79 148.972 455.892 148.972 451.713C148.972 447.941 149.271 444.744 149.871 442.122C150.012 441.489 150.279 441.172 150.67 441.172C151.145 441.172 151.852 441.181 152.801 441.197C153.742 441.214 154.45 441.222 154.924 441.222C155.249 441.222 155.416 441.397 155.416 441.755C155.416 442.388 155.307 443.445 155.099 444.927C154.874 446.509 154.758 447.617 154.741 448.266C154.691 449.248 154.666 450.322 154.666 451.488C154.666 454.335 154.866 456.242 155.274 457.224C155.974 458.981 157.522 459.855 159.92 459.855C160.944 459.855 162.151 459.347 163.55 458.34C165.015 457.283 165.773 456.267 165.831 455.293C165.914 454.077 165.956 449.781 165.956 442.413C165.956 441.622 166.289 441.222 166.955 441.222H170.993C171.468 441.222 171.701 441.506 171.701 442.072ZM193.747 441.289C193.747 443.079 193.622 444.711 193.381 446.176C193.331 446.551 193.164 446.734 192.89 446.734C192.548 446.734 192.032 446.701 191.341 446.626C190.642 446.551 190.117 446.517 189.759 446.517C187.703 446.517 186.387 447.092 185.821 448.249C185.48 448.949 185.305 450.406 185.305 452.612V455.301C185.305 456.209 185.338 457.591 185.405 459.447C185.471 461.296 185.505 462.678 185.505 463.593C185.505 464.026 185.321 464.251 184.947 464.251C184.447 464.251 183.69 464.243 182.674 464.226C181.658 464.21 180.892 464.201 180.393 464.201C180.026 464.201 179.835 464.001 179.835 463.593C179.835 462.278 179.86 460.288 179.901 457.641C179.943 454.993 179.96 452.995 179.96 451.663C179.96 447.65 179.593 444.419 178.861 441.98C178.827 441.847 178.811 441.755 178.811 441.689C178.811 441.489 178.919 441.356 179.127 441.272C179.718 441.206 180.559 441.106 181.641 440.973C183.381 440.64 184.189 440.473 184.056 440.473C184.314 440.473 184.489 440.956 184.564 441.922C184.647 442.896 184.797 443.379 185.005 443.379C185.038 443.379 185.08 443.362 185.13 443.329C185.796 442.904 186.462 442.48 187.136 442.047C187.869 441.605 188.618 441.281 189.393 441.064C190.025 440.873 190.841 440.773 191.84 440.773C193.114 440.773 193.747 440.948 193.747 441.289ZM223.295 442.122C223.295 442.188 223.27 442.33 223.22 442.563C222.57 446.284 222.246 449.49 222.246 452.187C222.246 452.354 222.454 456.001 222.87 463.136L222.895 463.477C222.912 463.952 222.695 464.185 222.246 464.185C221.796 464.185 221.122 464.235 220.214 464.343C219.315 464.451 218.641 464.501 218.199 464.501C217.891 464.501 217.658 463.935 217.492 462.802C217.325 461.67 217.175 461.104 217.026 461.104C216.926 461.104 216.493 461.421 215.71 462.053C214.753 462.827 213.853 463.419 213.029 463.827C211.739 464.476 210.457 464.801 209.174 464.801C206.019 464.801 203.355 463.543 201.19 461.021C199.142 458.615 198.118 455.809 198.118 452.604C198.118 448.999 199.15 446.01 201.215 443.654C203.38 441.197 206.227 439.974 209.757 439.974C212.247 439.974 214.42 440.839 216.268 442.563C216.543 442.888 216.976 443.362 217.567 443.978C217.608 444.028 217.658 444.053 217.708 444.053C217.808 444.053 217.95 443.545 218.125 442.513C218.308 441.489 218.533 440.973 218.816 440.973C219.257 440.973 220.081 441.097 221.288 441.339C222.629 441.63 223.295 441.897 223.295 442.122ZM217.051 452.321C217.051 450.322 216.459 448.616 215.269 447.184C214.02 445.643 212.422 444.869 210.465 444.869C208.517 444.869 206.893 445.635 205.586 447.159C204.337 448.624 203.713 450.339 203.713 452.321C203.713 454.285 204.337 455.992 205.586 457.441C206.893 458.948 208.517 459.705 210.465 459.705C212.371 459.705 213.962 458.931 215.244 457.391C216.451 455.942 217.051 454.26 217.051 452.321ZM251.852 441.456C251.852 443.412 251.835 446.343 251.802 450.256C251.769 454.169 251.752 457.099 251.752 459.048C251.752 462.919 250.919 465.775 249.262 467.615C247.522 469.571 244.742 470.545 240.912 470.545C237.224 470.545 234.235 469.846 231.962 468.456C231.604 468.231 231.421 468.031 231.421 467.873C231.421 468.048 231.662 466.849 232.153 464.268C232.203 463.993 232.32 463.852 232.495 463.852C232.578 463.852 232.686 463.893 232.811 463.976C235.259 465.359 237.706 466.05 240.163 466.05C241.778 466.05 243.118 465.692 244.176 464.976C245.391 464.168 246.007 462.986 246.007 461.446C246.007 461.104 245.974 460.338 245.907 459.156C244.101 461.354 241.811 462.453 239.022 462.453C236.016 462.453 233.544 461.371 231.604 459.206C229.747 457.124 228.823 454.56 228.823 451.521C228.823 448.432 229.722 445.801 231.512 443.637C233.419 441.331 235.891 440.173 238.939 440.173C241.628 440.173 243.768 441.206 245.349 443.262C245.608 443.603 245.791 443.77 245.907 443.77C246.04 443.77 246.099 443.62 246.099 443.329C246.099 443.121 246.082 442.779 246.049 442.321C246.024 441.855 246.007 441.514 246.007 441.289C246.007 440.315 246.099 439.824 246.299 439.824C246.457 439.824 247.331 439.974 248.913 440.273C250.503 440.573 251.369 440.756 251.51 440.823C251.735 440.906 251.852 441.114 251.852 441.456ZM246.007 451.521C246.007 449.706 245.508 448.158 244.517 446.892C243.426 445.51 241.994 444.819 240.229 444.819C238.472 444.819 237.049 445.518 235.958 446.917C234.967 448.183 234.468 449.723 234.468 451.521C234.468 453.295 234.976 454.827 235.983 456.109C237.074 457.507 238.489 458.207 240.229 458.207C241.953 458.207 243.368 457.507 244.467 456.109C245.491 454.827 246.007 453.295 246.007 451.521ZM283.198 442.122C283.198 442.188 283.173 442.33 283.123 442.563C282.474 446.284 282.149 449.49 282.149 452.187C282.149 452.354 282.357 456.001 282.773 463.136L282.798 463.477C282.815 463.952 282.599 464.185 282.149 464.185C281.699 464.185 281.025 464.235 280.117 464.343C279.218 464.451 278.544 464.501 278.103 464.501C277.795 464.501 277.561 463.935 277.395 462.802C277.229 461.67 277.079 461.104 276.929 461.104C276.829 461.104 276.396 461.421 275.613 462.053C274.656 462.827 273.757 463.419 272.932 463.827C271.642 464.476 270.36 464.801 269.078 464.801C265.922 464.801 263.258 463.543 261.093 461.021C259.045 458.615 258.021 455.809 258.021 452.604C258.021 448.999 259.053 446.01 261.118 443.654C263.283 441.197 266.13 439.974 269.66 439.974C272.15 439.974 274.323 440.839 276.171 442.563C276.446 442.888 276.879 443.362 277.47 443.978C277.512 444.028 277.561 444.053 277.611 444.053C277.711 444.053 277.853 443.545 278.028 442.513C278.211 441.489 278.436 440.973 278.719 440.973C279.16 440.973 279.984 441.097 281.192 441.339C282.532 441.63 283.198 441.897 283.198 442.122ZM276.954 452.321C276.954 450.322 276.363 448.616 275.172 447.184C273.923 445.643 272.325 444.869 270.368 444.869C268.42 444.869 266.796 445.635 265.489 447.159C264.24 448.624 263.616 450.339 263.616 452.321C263.616 454.285 264.24 455.992 265.489 457.441C266.796 458.948 268.42 459.705 270.368 459.705C272.275 459.705 273.865 458.931 275.147 457.391C276.354 455.942 276.954 454.26 276.954 452.321Z" fill="#332C2B" stroke="#332C2B" stroke-width="0.288" stroke-miterlimit="22.9256"/>
</svg>
