<svg width="360" height="257" viewBox="0 0 360 257" fill="none" xmlns="http://www.w3.org/2000/svg">
<path fill-rule="evenodd" clip-rule="evenodd" d="M174.624 1.47404C158.726 4.93647 154.72 5.54157 139.922 13.9488C130.321 19.4034 120.688 28.3661 114.714 36.2325C108.336 44.6306 101.6 54.9185 98.4192 66.7903C91.1047 94.091 92.9105 118.659 107.578 143.57C138.104 195.414 216.114 209.271 262.4 153.949C294.772 115.257 289.271 53.7339 247.624 21.0131C228.861 6.27215 199.527 -3.9492 174.624 1.47404ZM135.154 106.894C135.723 113.552 133.841 110.268 136.369 116.002C137.548 118.675 136.504 117.536 137.115 120.331C137.555 122.35 138.331 122.58 138.795 124.054C140.451 129.315 134.807 134.773 143.008 139.313C148.029 142.093 155.92 139.976 161.473 141.707C168.057 143.76 166.913 149.851 167.66 157.004C184.777 157.67 210.088 157.172 228.338 157.06C228.17 152.817 219.52 140.992 226.146 119.65C227.709 114.615 230.948 109.11 233.389 104.772C243.216 87.3105 245.89 70.7157 236.061 52.8049C216.63 17.3983 160.142 23.3292 145.98 46.5532C143.736 50.2322 137.895 66.7763 137.66 71.6421C137.093 83.3779 145.981 74.5951 130.884 94.0029C124.965 101.611 127.896 104.327 135.154 106.894Z" fill="#68B39F"/>
<path fill-rule="evenodd" clip-rule="evenodd" d="M179.478 37.6309C169.073 39.4001 160.743 41.9861 156.546 51.2935C154.613 55.581 154.857 62.4416 157.69 66.0148C165.161 75.4394 178.993 71.9369 192.22 86.2417C196.309 90.663 206.592 102.213 210.556 104.335C227.634 113.474 239.824 78.4744 229.564 59.2956C225.211 51.1563 219.829 45.3892 211.204 41.2653C203.889 37.7677 188.697 36.0632 179.478 37.6309Z" fill="#20BEEE"/>
<path fill-rule="evenodd" clip-rule="evenodd" d="M189.881 54.0389C187.24 55.3202 184.185 56.6695 184.577 62.5191C185.016 69.0773 196.273 77.0313 198.506 77.5332C202.704 78.4774 222.371 64.8068 212.09 55.276C207.356 50.8876 201.892 54.6244 201.064 54.9184C197.151 56.3101 196 51.0701 189.881 54.0389Z" fill="#BB212A"/>
<path d="M0 226.882H9.67333L17.6402 245.588L25.7934 226.882H34.4803V228.681L34.1133 228.702C32.7802 228.808 31.9869 229.035 31.7401 229.381C31.4869 229.735 31.3603 230.781 31.3603 232.521V250.162C31.3603 251.901 31.4933 252.955 31.7533 253.308C32.0134 253.668 32.7934 253.888 34.1068 253.982L34.4803 254.002V255.801H23.1602V254.002L23.5268 253.982C24.6134 253.915 25.2669 253.702 25.4801 253.341C25.6936 252.975 25.8002 251.915 25.8002 250.162V232.975L16.8268 252.562H14.8467L6.04007 231.761V250.162C6.04007 251.888 6.15345 252.942 6.37342 253.321C6.59339 253.695 7.24687 253.915 8.32668 253.982L8.68006 254.002V255.801H0V254.002L0.373418 253.982C1.6868 253.888 2.4737 253.668 2.73336 253.308C2.99339 252.955 3.12 251.901 3.12 250.162V232.521C3.12 230.781 2.99339 229.735 2.74016 229.381C2.48693 229.035 1.69361 228.808 0.373418 228.702L0 228.681V226.882ZM55.8731 254.962C53.3265 255.842 50.8399 256.281 48.4199 256.281C44.7598 256.281 41.8734 255.255 39.7466 253.202C37.6199 251.141 36.5533 248.355 36.5533 244.828C36.5533 241.575 37.5133 238.941 39.4333 236.915C41.3533 234.895 43.8531 233.882 46.933 233.882C52.8934 233.882 55.8731 237.541 55.8731 244.855V245.282H42.4732C42.4732 247.988 43.1066 250.015 44.3667 251.368C45.6333 252.722 47.5264 253.401 50.053 253.401C51.7731 253.401 53.7131 252.935 55.8731 252.002V254.962ZM42.5934 243.481H50.1933V242.795C50.1933 240.195 49.9332 238.362 49.4064 237.288C48.8867 236.215 47.98 235.682 46.6998 235.682C45.3332 235.682 44.3131 236.328 43.6267 237.628C42.94 238.928 42.5934 240.881 42.5934 243.481ZM67.313 238.415C68.1997 236.902 69.2598 235.768 70.4799 235.015C71.7063 234.262 73.1063 233.882 74.6733 233.882C76.5997 233.882 78.113 234.475 79.2064 235.655C80.293 236.848 80.8331 238.508 80.8331 240.628V250.122C80.8331 251.881 80.9666 252.942 81.233 253.301C81.4998 253.662 82.2932 253.888 83.6065 253.982L83.9796 254.002V255.801H71.9131V254.002L72.2665 253.982C73.5931 253.888 74.3864 253.662 74.6464 253.301C74.9065 252.942 75.0331 251.881 75.0331 250.122V241.295C75.0331 239.775 74.8532 238.748 74.493 238.208C74.1396 237.668 73.4532 237.402 72.4331 237.402C71.5597 237.402 70.6998 237.668 69.8464 238.195C68.993 238.721 68.1464 239.515 67.313 240.582V250.122C67.313 251.881 67.4464 252.942 67.7133 253.301C67.9729 253.662 68.7598 253.888 70.0664 253.982L70.433 254.002V255.801H58.3929V254.002L58.7664 253.982C60.0797 253.888 60.8666 253.662 61.1263 253.301C61.3863 252.942 61.513 251.881 61.513 250.122V240.042C61.513 238.281 61.3863 237.222 61.1263 236.862C60.8666 236.502 60.0797 236.275 58.7664 236.182L58.3929 236.162V234.362H67.313V238.415ZM98.5062 255.615C97.293 256.062 96.1062 256.281 94.9463 256.281C92.533 256.281 90.7196 255.688 89.5128 254.495C88.3064 253.301 87.7062 251.515 87.7062 249.135V236.281H85.0662V234.362H87.7062V230.762L93.5063 229.748V234.362H98.2662V236.281H93.5063V249.261C93.5063 251.168 93.693 252.435 94.0728 253.042C94.453 253.655 95.2331 253.962 96.4195 253.962C97.0662 253.962 97.7662 253.815 98.5062 253.515V255.615ZM113.373 253.321C112.346 254.308 111.3 255.048 110.22 255.541C109.146 256.035 108.053 256.281 106.933 256.281C105.033 256.281 103.46 255.695 102.206 254.515C100.96 253.341 100.333 251.855 100.333 250.062C100.333 247.968 101.127 246.295 102.713 245.048C103.666 244.295 104.793 243.775 106.093 243.481C107.393 243.188 109.226 243.041 111.6 243.041H112.573V240.441C112.573 238.602 112.34 237.348 111.873 236.682C111.413 236.015 110.553 235.682 109.293 235.682C107.773 235.682 106.627 236.088 105.86 236.908C105.6 237.168 105.433 238.035 105.353 239.515L105.333 239.881H102.173V235.562C104.653 234.441 107.246 233.882 109.953 233.882C112.666 233.882 114.746 234.441 116.2 235.562C117.646 236.682 118.373 238.288 118.373 240.381V249.788C118.373 251.448 118.493 252.575 118.74 253.168C118.973 253.775 119.419 254.081 120.08 254.081C120.273 254.081 120.5 254.048 120.76 253.982L121.013 255.795C120.013 256.122 119.026 256.281 118.066 256.281C117.006 256.281 116.093 256.035 115.313 255.541C114.526 255.048 113.886 254.308 113.373 253.321ZM112.573 251.895V244.802H111.813C109.886 244.802 108.44 245.188 107.466 245.962C106.5 246.735 106.013 247.895 106.013 249.442C106.013 250.582 106.32 251.495 106.94 252.181C107.56 252.861 108.386 253.202 109.433 253.202C110.013 253.202 110.566 253.088 111.086 252.868C111.606 252.648 112.106 252.322 112.573 251.895ZM131.26 224.962V250.122C131.26 251.881 131.393 252.942 131.66 253.301C131.919 253.662 132.706 253.888 134.013 253.982L134.38 254.002V255.801H122.34V254.002L122.713 253.982C124.026 253.888 124.813 253.662 125.073 253.301C125.333 252.942 125.46 251.881 125.46 250.122V230.642C125.46 228.888 125.333 227.835 125.073 227.468C124.813 227.102 124.026 226.882 122.713 226.802L122.34 226.761V224.962H131.26ZM144.746 241.601V250.162C144.746 251.901 144.879 252.955 145.14 253.308C145.4 253.668 146.186 253.888 147.513 253.982L147.866 254.002V255.801H135.586V254.002L135.959 253.982C137.273 253.888 138.06 253.668 138.319 253.308C138.579 252.955 138.706 251.901 138.706 250.162V232.521C138.706 230.781 138.579 229.735 138.326 229.381C138.073 229.035 137.28 228.808 135.959 228.702L135.586 228.681V226.882H147.866V228.681L147.513 228.702C146.18 228.808 145.38 229.035 145.126 229.381C144.873 229.735 144.746 230.781 144.746 232.521V239.562H156.666V232.521C156.666 230.781 156.539 229.735 156.286 229.381C156.033 229.035 155.24 228.808 153.919 228.702L153.546 228.681V226.882H165.826V228.681L165.473 228.702C164.14 228.808 163.339 229.035 163.086 229.381C162.833 229.735 162.706 230.781 162.706 232.521V250.162C162.706 251.901 162.839 252.955 163.099 253.308C163.359 253.668 164.146 253.888 165.473 253.982L165.826 254.002V255.801H153.546V254.002L153.919 253.982C155.233 253.888 156.02 253.668 156.279 253.308C156.539 252.955 156.666 251.901 156.666 250.162V241.601H144.746ZM187.239 254.962C184.693 255.842 182.206 256.281 179.786 256.281C176.126 256.281 173.24 255.255 171.113 253.202C168.986 251.141 167.919 248.355 167.919 244.828C167.919 241.575 168.879 238.941 170.799 236.915C172.719 234.895 175.219 233.882 178.299 233.882C184.26 233.882 187.239 237.541 187.239 244.855V245.282H173.839C173.839 247.988 174.473 250.015 175.733 251.368C176.999 252.722 178.893 253.401 181.419 253.401C183.139 253.401 185.079 252.935 187.239 252.002V254.962ZM173.96 243.481H181.559V242.795C181.559 240.195 181.299 238.362 180.773 237.288C180.253 236.215 179.346 235.682 178.066 235.682C176.699 235.682 175.679 236.328 174.993 237.628C174.306 238.928 173.96 240.881 173.96 243.481ZM203.039 253.321C202.013 254.308 200.966 255.048 199.886 255.541C198.813 256.035 197.719 256.281 196.599 256.281C194.699 256.281 193.126 255.695 191.873 254.515C190.626 253.341 189.999 251.855 189.999 250.062C189.999 247.968 190.793 246.295 192.379 245.048C193.333 244.295 194.459 243.775 195.759 243.481C197.059 243.188 198.893 243.041 201.266 243.041H202.239V240.441C202.239 238.602 202.006 237.348 201.539 236.682C201.079 236.015 200.219 235.682 198.959 235.682C197.439 235.682 196.293 236.088 195.526 236.908C195.266 237.168 195.099 238.035 195.019 239.515L194.999 239.881H191.839V235.562C194.319 234.441 196.913 233.882 199.619 233.882C202.332 233.882 204.413 234.441 205.866 235.562C207.313 236.682 208.039 238.288 208.039 240.381V249.788C208.039 251.448 208.159 252.575 208.406 253.168C208.639 253.775 209.086 254.081 209.746 254.081C209.939 254.081 210.166 254.048 210.426 253.982L210.679 255.795C209.679 256.122 208.693 256.281 207.733 256.281C206.672 256.281 205.759 256.035 204.979 255.541C204.193 255.048 203.553 254.308 203.039 253.321ZM202.239 251.895V244.802H201.479C199.553 244.802 198.106 245.188 197.133 245.962C196.166 246.735 195.679 247.895 195.679 249.442C195.679 250.582 195.986 251.495 196.606 252.181C197.226 252.861 198.053 253.202 199.099 253.202C199.679 253.202 200.233 253.088 200.753 252.868C201.273 252.648 201.773 252.322 202.239 251.895ZM220.926 224.962V250.122C220.926 251.881 221.059 252.942 221.326 253.301C221.586 253.662 222.373 253.888 223.679 253.982L224.046 254.002V255.801H212.006V254.002L212.379 253.982C213.693 253.888 214.48 253.662 214.739 253.301C214.999 252.942 215.126 251.881 215.126 250.122V230.642C215.126 228.888 214.999 227.835 214.739 227.468C214.48 227.102 213.693 226.882 212.379 226.802L212.006 226.761V224.962H220.926ZM238.972 255.615C237.759 256.062 236.572 256.281 235.412 256.281C232.999 256.281 231.186 255.688 229.979 254.495C228.773 253.301 228.172 251.515 228.172 249.135V236.281H225.532V234.362H228.172V230.762L233.972 229.748V234.362H238.732V236.281H233.972V249.261C233.972 251.168 234.159 252.435 234.539 253.042C234.919 253.655 235.699 253.962 236.886 253.962C237.532 253.962 238.232 253.815 238.972 253.515V255.615ZM249.479 238.415C250.366 236.902 251.426 235.768 252.646 235.015C253.872 234.262 255.272 233.882 256.839 233.882C258.766 233.882 260.279 234.475 261.372 235.655C262.459 236.848 262.999 238.508 262.999 240.628V250.122C262.999 251.881 263.133 252.942 263.399 253.301C263.666 253.662 264.459 253.888 265.773 253.982L266.146 254.002V255.801H254.079V254.002L254.432 253.982C255.759 253.888 256.552 253.662 256.812 253.301C257.073 252.942 257.199 251.881 257.199 250.122V241.295C257.199 239.775 257.019 238.748 256.659 238.208C256.306 237.668 255.619 237.402 254.599 237.402C253.726 237.402 252.866 237.668 252.012 238.195C251.159 238.721 250.312 239.515 249.479 240.582V250.122C249.479 251.881 249.612 252.942 249.879 253.301C250.139 253.662 250.926 253.888 252.232 253.982L252.599 254.002V255.801H240.559V254.002L240.932 253.982C242.246 253.888 243.033 253.662 243.292 253.301C243.552 252.942 243.679 251.881 243.679 250.122V230.642C243.679 228.888 243.552 227.835 243.292 227.468C243.033 227.102 242.246 226.882 240.932 226.802L240.559 226.761V224.962H249.479V238.415ZM268.272 255.801V249.521H274.552V255.801H268.272ZM296.399 255.281C294.172 255.948 292.039 256.281 289.992 256.281C286.252 256.281 283.312 255.261 281.172 253.228C279.032 251.195 277.959 248.395 277.959 244.828C277.959 241.422 278.972 238.741 281.006 236.801C283.039 234.855 285.839 233.882 289.406 233.882C291.659 233.882 293.966 234.201 296.319 234.842V240.361H293.559L293.539 240.008C293.432 238.388 293.239 237.395 292.952 237.048C292.219 236.135 291.092 235.682 289.565 235.682C287.732 235.682 286.365 236.422 285.452 237.908C284.539 239.395 284.079 241.621 284.079 244.595C284.079 247.628 284.685 249.908 285.905 251.435C287.125 252.962 288.946 253.722 291.372 253.722C292.872 253.722 294.545 253.348 296.399 252.601V255.281ZM312.219 253.321C311.192 254.308 310.145 255.048 309.066 255.541C307.992 256.035 306.899 256.281 305.779 256.281C303.879 256.281 302.306 255.695 301.052 254.515C299.806 253.341 299.179 251.855 299.179 250.062C299.179 247.968 299.972 246.295 301.559 245.048C302.512 244.295 303.639 243.775 304.939 243.481C306.239 243.188 308.072 243.041 310.445 243.041H311.419V240.441C311.419 238.602 311.185 237.348 310.719 236.682C310.259 236.015 309.399 235.682 308.139 235.682C306.619 235.682 305.472 236.088 304.706 236.908C304.445 237.168 304.279 238.035 304.199 239.515L304.179 239.881H301.019V235.562C303.499 234.441 306.092 233.882 308.799 233.882C311.512 233.882 313.592 234.441 315.046 235.562C316.492 236.682 317.219 238.288 317.219 240.381V249.788C317.219 251.448 317.339 252.575 317.585 253.168C317.819 253.775 318.265 254.081 318.926 254.081C319.119 254.081 319.345 254.048 319.606 253.982L319.859 255.795C318.859 256.122 317.872 256.281 316.912 256.281C315.852 256.281 314.939 256.035 314.159 255.541C313.372 255.048 312.732 254.308 312.219 253.321ZM311.419 251.895V244.802H310.659C308.732 244.802 307.285 245.188 306.312 245.962C305.345 246.735 304.859 247.895 304.859 249.442C304.859 250.582 305.165 251.495 305.786 252.181C306.406 252.861 307.232 253.202 308.279 253.202C308.859 253.202 309.412 253.088 309.932 252.868C310.452 252.648 310.952 252.322 311.419 251.895ZM330.105 240.482V250.122C330.105 251.908 330.252 252.968 330.539 253.315C330.825 253.655 331.772 253.875 333.372 253.982L333.745 254.002V255.801H321.185V254.002L321.559 253.982C322.872 253.888 323.659 253.662 323.919 253.301C324.179 252.942 324.305 251.881 324.305 250.122V240.042C324.305 238.281 324.179 237.222 323.919 236.862C323.659 236.502 322.872 236.275 321.559 236.182L321.185 236.162V234.362H330.105V238.402C331.859 235.388 334.139 233.882 336.932 233.882C337.232 233.882 337.612 233.935 338.066 234.042V240.841H335.426L335.405 240.495C335.299 239.068 335.206 238.268 335.125 238.082C335.039 237.895 334.712 237.801 334.152 237.801C332.485 237.801 331.139 238.695 330.105 240.482ZM359.639 254.962C357.092 255.842 354.605 256.281 352.185 256.281C348.525 256.281 345.639 255.255 343.512 253.202C341.385 251.141 340.319 248.355 340.319 244.828C340.319 241.575 341.279 238.941 343.199 236.915C345.119 234.895 347.619 233.882 350.699 233.882C356.659 233.882 359.639 237.541 359.639 244.855V245.282H346.239C346.239 247.988 346.872 250.015 348.132 251.368C349.399 252.722 351.292 253.401 353.819 253.401C355.539 253.401 357.479 252.935 359.639 252.002V254.962ZM346.359 243.481H353.959V242.795C353.959 240.195 353.699 238.362 353.172 237.288C352.652 236.215 351.745 235.682 350.465 235.682C349.099 235.682 348.079 236.328 347.392 237.628C346.706 238.928 346.359 240.881 346.359 243.481Z" fill="#332C2B"/>
</svg>
