<svg width="430" height="473" viewBox="0 0 430 473" fill="none" xmlns="http://www.w3.org/2000/svg">
<path fill-rule="evenodd" clip-rule="evenodd" d="M200.181 66.8866C184.283 70.3491 180.277 70.9542 165.48 79.3614C155.878 84.816 146.246 93.7787 140.272 101.645C133.893 110.043 127.157 120.331 123.977 132.203C116.662 159.504 118.468 184.072 133.135 208.983C163.662 260.827 241.672 274.683 287.957 219.361C320.329 180.67 314.829 119.147 273.181 86.4257C254.418 71.6848 225.084 61.4634 200.181 66.8866ZM160.711 172.307C161.28 178.964 159.398 175.681 161.926 181.415C163.105 184.088 162.062 182.948 162.672 185.744C163.113 187.762 163.888 187.992 164.352 189.466C166.008 194.728 160.364 200.185 168.565 204.725C173.587 207.505 181.478 205.388 187.03 207.12C193.614 209.173 192.47 215.263 193.217 222.417C210.334 223.082 235.646 222.585 253.896 222.473C253.727 218.23 245.078 206.404 251.703 185.062C253.266 180.028 256.505 174.523 258.947 170.184C268.774 152.723 271.448 136.128 261.619 118.218C242.188 82.8109 185.699 88.7418 171.537 111.966C169.293 115.645 163.452 132.189 163.217 137.055C162.65 148.791 171.539 140.008 156.441 159.416C150.522 167.024 153.453 169.739 160.711 172.307Z" fill="#68B39F"/>
<path fill-rule="evenodd" clip-rule="evenodd" d="M205.035 103.044C194.631 104.813 186.3 107.399 182.103 116.706C180.17 120.994 180.415 127.854 183.247 131.427C190.718 140.852 204.55 137.35 217.777 151.654C221.866 156.076 232.149 167.625 236.114 169.747C253.192 178.887 265.381 143.887 255.122 124.708C250.768 116.569 245.387 110.802 236.762 106.678C229.447 103.18 214.254 101.476 205.035 103.044Z" fill="#20BEEE"/>
<path fill-rule="evenodd" clip-rule="evenodd" d="M215.438 119.452C212.798 120.733 209.742 122.082 210.134 127.932C210.574 134.49 221.83 142.444 224.063 142.946C228.261 143.89 247.928 130.219 237.647 120.689C232.913 116.3 227.449 120.037 226.622 120.331C222.708 121.723 221.557 116.483 215.438 119.452Z" fill="#BB212A"/>
</svg>
