<svg width="47" height="47" viewBox="0 0 47 47" fill="none" xmlns="http://www.w3.org/2000/svg">
<g clip-path="url(#clip0_122_69)">
<path fill-rule="evenodd" clip-rule="evenodd" d="M10.2014 0.732715C19.0401 -0.244238 27.9598 -0.244238 36.7984 0.732715C41.6921 1.28029 45.6402 5.1276 46.2145 10.0301C47.2618 18.9796 47.2618 28.0204 46.2145 36.9699C45.6402 41.8724 41.6921 45.7197 36.7984 46.2673C27.9598 47.2442 19.0401 47.2442 10.2014 46.2673C5.30771 45.7197 1.35958 41.8724 0.785364 36.9699C-0.261788 28.0213 -0.261788 18.9815 0.785364 10.033C1.07581 7.65123 2.16343 5.43717 3.87196 3.74966C5.58049 2.06214 7.8098 1.00007 10.1986 0.735567M23.4999 9.26011C24.0682 9.26011 24.6132 9.48546 25.015 9.8866C25.4168 10.2877 25.6425 10.8318 25.6425 11.3991V21.361H35.6214C36.1896 21.361 36.7346 21.5864 37.1364 21.9875C37.5383 22.3887 37.764 22.9327 37.764 23.5C37.764 24.0673 37.5383 24.6113 37.1364 25.0125C36.7346 25.4136 36.1896 25.639 35.6214 25.639H25.6425V35.6009C25.6425 36.1682 25.4168 36.7123 25.015 37.1134C24.6132 37.5145 24.0682 37.7399 23.4999 37.7399C22.9317 37.7399 22.3867 37.5145 21.9849 37.1134C21.583 36.7123 21.3573 36.1682 21.3573 35.6009V25.639H11.3784C10.8102 25.639 10.2652 25.4136 9.86339 25.0125C9.46157 24.6113 9.23583 24.0673 9.23583 23.5C9.23583 22.9327 9.46157 22.3887 9.86339 21.9875C10.2652 21.5864 10.8102 21.361 11.3784 21.361H21.3573V11.3991C21.3573 10.8318 21.583 10.2877 21.9849 9.8866C22.3867 9.48546 22.9317 9.26011 23.4999 9.26011Z" fill="#68B39F"/>
</g>
<defs>
<clipPath id="clip0_122_69">
<rect width="47" height="47" fill="white"/>
</clipPath>
</defs>
</svg>
