<svg width="179" height="179" viewBox="0 0 179 179" fill="none" xmlns="http://www.w3.org/2000/svg">
<path fill-rule="evenodd" clip-rule="evenodd" d="M119.333 67.1251C119.333 75.0374 116.19 82.6256 110.595 88.2204C105.001 93.8153 97.4124 96.9584 89.5001 96.9584C81.5878 96.9584 73.9996 93.8153 68.4047 88.2204C62.8099 82.6256 59.6667 75.0374 59.6667 67.1251C59.6667 59.2128 62.8099 51.6246 68.4047 46.0297C73.9996 40.4349 81.5878 37.2917 89.5001 37.2917C97.4124 37.2917 105.001 40.4349 110.595 46.0297C116.19 51.6246 119.333 59.2128 119.333 67.1251ZM104.417 67.1251C104.417 71.0812 102.845 74.8753 100.048 77.6728C97.2503 80.4702 93.4562 82.0417 89.5001 82.0417C85.5439 82.0417 81.7498 80.4702 78.9524 77.6728C76.155 74.8753 74.5834 71.0812 74.5834 67.1251C74.5834 63.1689 76.155 59.3748 78.9524 56.5774C81.7498 53.78 85.5439 52.2084 89.5001 52.2084C93.4562 52.2084 97.2503 53.78 100.048 56.5774C102.845 59.3748 104.417 63.1689 104.417 67.1251Z" fill="black"/>
<path fill-rule="evenodd" clip-rule="evenodd" d="M89.5 7.45837C44.1907 7.45837 7.45837 44.1907 7.45837 89.5C7.45837 134.809 44.1907 171.542 89.5 171.542C134.809 171.542 171.542 134.809 171.542 89.5C171.542 44.1907 134.809 7.45837 89.5 7.45837ZM22.375 89.5C22.375 105.088 27.6928 119.438 36.6055 130.834C42.8664 122.616 50.9416 115.956 60.201 111.373C69.4604 106.791 79.6535 104.41 89.9848 104.417C100.183 104.405 110.25 106.722 119.416 111.192C128.583 115.661 136.608 122.165 142.879 130.208C149.342 121.732 153.693 111.839 155.573 101.348C157.453 90.8572 156.807 80.0692 153.69 69.877C150.573 59.6849 145.074 50.3814 137.647 42.7366C130.221 35.0917 121.08 29.3252 110.983 25.9141C100.885 22.503 90.1206 21.5455 79.5794 23.1207C69.0383 24.6959 59.0237 28.7586 50.3644 34.9726C41.7052 41.1866 34.65 49.3732 29.7829 58.8552C24.9157 68.3372 22.3764 78.8418 22.375 89.5ZM89.5 156.625C74.0904 156.65 59.1457 151.349 47.1964 141.619C52.0056 134.732 58.4077 129.109 65.8577 125.229C73.3077 121.349 81.5849 119.326 89.9848 119.333C98.2798 119.326 106.457 121.298 113.836 125.086C121.216 128.874 127.585 134.368 132.415 141.112C120.374 151.158 105.182 156.65 89.5 156.625Z" fill="black"/>
</svg>
