<svg width="90" height="135" viewBox="0 0 90 135" fill="none" xmlns="http://www.w3.org/2000/svg">
<rect y="23" width="90" height="90" rx="15" fill="#D9D9D9"/>
<path d="M43.95 35.46C49.89 35.46 54.69 37.14 58.35 40.5C62.01 43.86 63.84 48.36 63.84 54C63.84 60.3 61.89 64.98 57.99 68.04C54.09 71.04 48.81 72.54 42.15 72.54L41.88 81.09H34.77L34.41 66.87H37.02C42.96 66.87 47.61 65.97 50.97 64.17C54.33 62.37 56.01 58.98 56.01 54C56.01 50.4 54.93 47.55 52.77 45.45C50.61 43.35 47.7 42.3 44.04 42.3C40.32 42.3 37.38 43.32 35.22 45.36C33.12 47.34 32.07 50.07 32.07 53.55H24.33C24.33 49.95 25.14 46.8 26.76 44.1C28.38 41.34 30.66 39.21 33.6 37.71C36.6 36.21 40.05 35.46 43.95 35.46ZM38.28 99.54C36.72 99.54 35.4 99 34.32 97.92C33.24 96.84 32.7 95.52 32.7 93.96C32.7 92.4 33.24 91.08 34.32 90C35.4 88.92 36.72 88.38 38.28 88.38C39.78 88.38 41.04 88.92 42.06 90C43.14 91.08 43.68 92.4 43.68 93.96C43.68 95.52 43.14 96.84 42.06 97.92C41.04 99 39.78 99.54 38.28 99.54Z" fill="black" fill-opacity="0.5"/>
</svg>
