<svg width="26" height="26" viewBox="0 0 26 26" fill="none" xmlns="http://www.w3.org/2000/svg">
<path fill-rule="evenodd" clip-rule="evenodd" d="M25.5 13C25.5 9.68479 24.183 6.50537 21.8388 4.16116C19.4946 1.81696 16.3152 0.5 13 0.5C9.68479 0.5 6.50537 1.81696 4.16117 4.16116C1.81696 6.50537 0.5 9.68479 0.5 13C0.5 16.3152 1.81696 19.4946 4.16117 21.8388C6.50537 24.183 9.68479 25.5 13 25.5C16.3152 25.5 19.4946 24.183 21.8388 21.8388C24.183 19.4946 25.5 16.3152 25.5 13ZM19.1429 9.34286C19.1429 10.3518 18.3268 11.1696 17.3179 11.1714H17.3143C16.8389 11.1573 16.3878 10.9587 16.0563 10.6177C15.7248 10.2767 15.539 9.82011 15.5384 9.34456C15.5377 8.86901 15.7221 8.41185 16.0526 8.0699C16.383 7.72794 16.8336 7.52803 17.3089 7.5125H17.3143C18.3232 7.5125 19.1429 8.33214 19.1429 9.34286ZM10.5161 9.34286C10.5161 10.3518 9.7 11.1696 8.69107 11.1714H8.68571C8.21038 11.157 7.75931 10.9582 7.42801 10.6171C7.0967 10.2759 6.91117 9.81924 6.91071 9.3437C6.91024 8.86815 7.09488 8.41109 7.42552 8.06929C7.75616 7.7275 8.20684 7.52781 8.68214 7.5125H8.68571C9.69643 7.5125 10.5161 8.33214 10.5161 9.34286ZM7.98036 14.3571C7.94702 14.2106 7.88443 14.0723 7.79635 13.9506C7.70826 13.8288 7.5965 13.7261 7.46775 13.6486C7.33901 13.5711 7.19594 13.5204 7.04712 13.4995C6.8983 13.4786 6.74679 13.488 6.60169 13.5271C6.45659 13.5662 6.32088 13.6342 6.2027 13.727C6.08452 13.8199 5.98631 13.9356 5.91394 14.0673C5.84158 14.199 5.79656 14.344 5.78158 14.4935C5.76661 14.643 5.78198 14.7941 5.82679 14.9375C6.25281 16.5149 7.18667 17.908 8.48394 18.9014C9.78122 19.8948 11.3696 20.4331 13.0036 20.4331C14.6375 20.4331 16.2259 19.8948 17.5232 18.9014C18.8205 17.908 19.7543 16.5149 20.1804 14.9375C20.2191 14.7958 20.2296 14.6478 20.211 14.502C20.1924 14.3562 20.1453 14.2155 20.0722 14.088C19.9992 13.9605 19.9017 13.8487 19.7853 13.759C19.6689 13.6693 19.5359 13.6034 19.394 13.5652C19.2522 13.527 19.1041 13.5172 18.9584 13.5364C18.8127 13.5555 18.6722 13.6033 18.545 13.6768C18.4178 13.7504 18.3064 13.8484 18.2172 13.9651C18.1279 14.0819 18.0626 14.2151 18.025 14.3571C17.7266 15.4606 17.0731 16.435 16.1655 17.1298C15.2578 17.8246 14.1466 18.2011 13.0036 18.2011C11.8605 18.2011 10.7493 17.8246 9.84167 17.1298C8.93404 16.435 8.27874 15.4606 7.98036 14.3571Z" fill="#5F5F5F"/>
</svg>
